<svg width="1348" height="1700" viewBox="0 0 1348 1" fill="none" xmlns="http://www.w3.org/2000/svg">
<g clip-path="url(#clip0_474_28358)">
<rect width="1348" height="600" fill="white"/>
<path d="M674 0H0V600H144.161L378.189 257.5L563.071 270.5L674 0Z" fill="#DEDEFF" fill-opacity="0.1"/>
<path d="M674 0H0V600H106.717L303.3 257.5L488.182 300.5L674 0Z" fill="#DEDEFF" fill-opacity="0.2"/>
<path d="M674 0H0V600H69.2722L228.411 257.5L413.293 320.5L674 0Z" fill="#DEDEFF" fill-opacity="0.3"/>
<path d="M674 0H0V600H31.8278L153.522 257.5L338.404 340.5L674 0Z" fill="#DEDEFF" fill-opacity="0.4"/>
<path d="M674 600H1348V0H1203.84L969.811 342.5L784.929 329.5L674 600Z" fill="#DEDEFF" fill-opacity="0.1"/>
<path d="M674 600H1348V0H1241.28L1044.7 342.5L859.818 299.5L674 600Z" fill="#DEDEFF" fill-opacity="0.2"/>
<path d="M674 600H1348V0H1278.73L1119.59 342.5L934.707 279.5L674 600Z" fill="#DEDEFF" fill-opacity="0.3"/>
<path d="M674 600H1348V0H1316.17L1194.48 342.5L1009.6 259.5L674 600Z" fill="#DEDEFF" fill-opacity="0.4"/>
<rect y="400" width="1348" height="200" fill="url(#paint0_linear_474_28358)"/>
<rect width="1348" height="200" transform="matrix(1 0 0 -1 0 200)" fill="url(#paint1_linear_474_28358)"/>
<rect width="200" height="600" transform="matrix(1 0 0 -1 0 600)" fill="url(#paint2_linear_474_28358)"/>
<rect x="1348" y="600" width="200" height="600" transform="rotate(180 1348 600)" fill="url(#paint3_linear_474_28358)"/>
</g>
<defs>
<linearGradient id="paint0_linear_474_28358" x1="674" y1="400" x2="674" y2="600" gradientUnits="userSpaceOnUse">
<stop stop-color="white" stop-opacity="0"/>
<stop offset="1" stop-color="white"/>
</linearGradient>
<linearGradient id="paint1_linear_474_28358" x1="674" y1="0" x2="674" y2="200" gradientUnits="userSpaceOnUse">
<stop stop-color="white" stop-opacity="0"/>
<stop offset="1" stop-color="white"/>
</linearGradient>
<linearGradient id="paint2_linear_474_28358" x1="200" y1="300" x2="-5.58794e-06" y2="300" gradientUnits="userSpaceOnUse">
<stop stop-color="white" stop-opacity="0"/>
<stop offset="1" stop-color="white"/>
</linearGradient>
<linearGradient id="paint3_linear_474_28358" x1="1548" y1="900" x2="1348" y2="900" gradientUnits="userSpaceOnUse">
<stop stop-color="white" stop-opacity="0"/>
<stop offset="1" stop-color="white"/>
</linearGradient>
<clipPath id="clip0_474_28358">
<rect width="1348" height="600" fill="white"/>
</clipPath>
</defs>
</svg>
